<svg id="Camada_1" fill="rgb(96, 57, 19)" data-name="Camada 1" xmlns="http://www.w3.org/2000/svg" viewBox="0 0 287.76 409.44"><defs><style>.cls-1{fill:#603913;}</style></defs><path class="cls-1" d="M959.79,407.26c-39.59-.05-72.1,32.61-71.89,72.23a71.82,71.82,0,1,0,143.64-.26C1031.51,439.66,999.27,407.32,959.79,407.26Zm-.26,120a48.06,48.06,0,1,1,48.1-47.76A47.93,47.93,0,0,1,959.53,527.28Z" transform="translate(-816.12 -335.28)"/><path class="cls-1" d="M1091.58,422.91C1071,375.25,1034,346.73,982.72,337.28c-3.41-.63-7-.36-10.23-2h-1.6a1.59,1.59,0,0,1-1.32.41h-3.45c-.57,0-1.16.09-1.61-.4h-9.58a1.57,1.57,0,0,1-1.31.41h-3.49c-.56,0-1.14.08-1.59-.4h-2.39c-.29,1.11-1.25.74-1.95.83a157.42,157.42,0,0,0-29.89,6.62,143.25,143.25,0,0,0-62.79,42.11,141,141,0,0,0-34.6,79.52c-3.54,34.06,4.74,65.31,22.84,94.32q55,88.13,109.4,176.62c2.5,4.05,5.23,7.61,9.76,9.42h5.59a19.59,19.59,0,0,0,8.89-8.09c36.28-60.83,72.87-121.48,108.92-182.45C1107.18,512.15,1110.91,467.68,1091.58,422.91Zm-12.25,61.74a117.27,117.27,0,0,1-16.94,56.3q-50,83.7-100,167.31c-.2.33-.42.65-.63,1-1.26-.73-1.7-2-2.39-3.16q-50.19-81-100.37-162c-19.31-31.14-24.36-64.49-13.85-99.53,9.66-32.2,30-56.31,59.79-71.88,28.54-14.88,58.6-17.49,89.31-8.33,27.58,8.22,49.4,24.84,65.36,48.87C1073.92,434.81,1080.35,458.77,1079.33,484.65Z" transform="translate(-816.12 -335.28)"/><path class="cls-1" d="M950.12,336c-.66.1-1.39.35-1.57-.67h1.59c.27.16.35.31.26.45S950.21,336,950.12,336Z" transform="translate(-816.12 -335.28)"/><path class="cls-1" d="M950.12,336c0-.23,0-.45,0-.67h1.6c.27.16.35.31.25.46s-.19.21-.28.21Z" transform="translate(-816.12 -335.28)"/><path class="cls-1" d="M951.71,336l0-.67h1.6c.26.16.35.32.25.46s-.19.21-.29.21Z" transform="translate(-816.12 -335.28)"/><path class="cls-1" d="M953.3,336c0-.22,0-.45,0-.67h1.59C954.61,336.06,954,336.09,953.3,336Z" transform="translate(-816.12 -335.28)"/><path class="cls-1" d="M966.14,336c-.69.13-1.31.11-1.63-.67h1.6c.24.13.33.28.26.43S966.22,336,966.14,336Z" transform="translate(-816.12 -335.28)"/><path class="cls-1" d="M966.14,336c0-.22,0-.45,0-.67h1.59c.25.14.34.28.27.43s-.16.24-.24.24Z" transform="translate(-816.12 -335.28)"/><path class="cls-1" d="M967.73,336l0-.67h1.6c.25.14.34.28.26.44s-.16.23-.24.23Z" transform="translate(-816.12 -335.28)"/><path class="cls-1" d="M969.32,336c0-.23,0-.45,0-.67h1.59C970.72,336.32,970,336.05,969.32,336Z" transform="translate(-816.12 -335.28)"/><path class="cls-1" d="M959.79,407.26c-39.59-.05-72.1,32.61-71.89,72.23a71.82,71.82,0,1,0,143.64-.26C1031.51,439.66,999.27,407.32,959.79,407.26Zm-.26,120a48.06,48.06,0,1,1,48.1-47.76A47.93,47.93,0,0,1,959.53,527.28Z" transform="translate(-816.12 -335.28)"/><path class="cls-1" d="M959.79,407.26c-39.59-.05-72.1,32.61-71.89,72.23a71.82,71.82,0,1,0,143.64-.26C1031.51,439.66,999.27,407.32,959.79,407.26Zm-.26,120a48.06,48.06,0,1,1,48.1-47.76A47.93,47.93,0,0,1,959.53,527.28Z" transform="translate(-816.12 -335.28)"/></svg>
