<?xml version="1.0" encoding="UTF-8" standalone="no"?>
<!DOCTYPE svg PUBLIC "-//W3C//DTD SVG 1.1//EN" "http://www.w3.org/Graphics/SVG/1.1/DTD/svg11.dtd">
<svg width="100%" height="100%" viewBox="0 0 271 251" version="1.1" xmlns="http://www.w3.org/2000/svg" xmlns:xlink="http://www.w3.org/1999/xlink" xml:space="preserve" xmlns:serif="http://www.serif.com/" style="fill-rule:evenodd;clip-rule:evenodd;stroke-linejoin:round;stroke-miterlimit:2;">
    <g transform="matrix(1,0,0,1,7.47536,-9631.95)">
        <g transform="matrix(1,0,0,2.48072,0,7711.85)">
            <g id="BACKGROUND" transform="matrix(3.24191,0,0,1.30684,-7.47698,774.01)">
                <g transform="matrix(0,-1,-1,0,1.2315,0.0002)">
                    <path d="M-1.231,-1.231C-0.551,-1.231 0,-0.68 0,0C0,0.68 -0.551,1.231 -1.231,1.231C-1.911,1.231 -2.462,0.68 -2.462,0C-2.462,-0.68 -1.911,-1.231 -1.231,-1.231" style="fill:rgb(196,196,196);fill-rule:nonzero;"/>
                </g>
                <g transform="matrix(0,-1,-1,0,21.4769,-0.0003)">
                    <path d="M-1.232,-1.232C-0.552,-1.232 -0.001,-0.681 -0.001,-0.001C-0.001,0.679 -0.552,1.232 -1.232,1.232C-1.912,1.232 -2.463,0.679 -2.463,-0.001C-2.463,-0.681 -1.912,-1.232 -1.232,-1.232" style="fill:rgb(196,196,196);fill-rule:nonzero;"/>
                </g>
                <g transform="matrix(0,-1,-1,0,41.7233,0.0002)">
                    <path d="M-1.231,-1.231C-0.551,-1.231 0,-0.68 0,0C0,0.68 -0.551,1.231 -1.231,1.231C-1.911,1.231 -2.462,0.68 -2.462,0C-2.462,-0.68 -1.911,-1.231 -1.231,-1.231" style="fill:rgb(196,196,196);fill-rule:nonzero;"/>
                </g>
                <g transform="matrix(0,-1,-1,0,61.9692,0.0002)">
                    <path d="M-1.231,-1.231C-0.551,-1.231 0,-0.68 0,0C0,0.68 -0.551,1.231 -1.231,1.231C-1.911,1.231 -2.462,0.68 -2.462,0C-2.462,-0.68 -1.911,-1.231 -1.231,-1.231" style="fill:rgb(196,196,196);fill-rule:nonzero;"/>
                </g>
                <g transform="matrix(0,-1,-1,0,82.2146,-0.0003)">
                    <path d="M-1.232,-1.232C-0.552,-1.232 -0.001,-0.681 -0.001,-0.001C-0.001,0.679 -0.552,1.232 -1.232,1.232C-1.912,1.232 -2.463,0.679 -2.463,-0.001C-2.463,-0.681 -1.912,-1.232 -1.232,-1.232" style="fill:rgb(196,196,196);fill-rule:nonzero;"/>
                </g>
                <g transform="matrix(0,-1,-1,0,1.2315,18.6764)">
                    <path d="M-1.231,-1.231C-0.551,-1.231 0,-0.68 0,0C0,0.68 -0.551,1.231 -1.231,1.231C-1.911,1.231 -2.462,0.68 -2.462,0C-2.462,-0.68 -1.911,-1.231 -1.231,-1.231" style="fill:rgb(196,196,196);fill-rule:nonzero;"/>
                </g>
                <g transform="matrix(0,-1,-1,0,21.4769,18.6759)">
                    <path d="M-1.232,-1.232C-0.552,-1.232 -0.001,-0.681 -0.001,-0.001C-0.001,0.679 -0.552,1.232 -1.232,1.232C-1.912,1.232 -2.463,0.679 -2.463,-0.001C-2.463,-0.681 -1.912,-1.232 -1.232,-1.232" style="fill:rgb(196,196,196);fill-rule:nonzero;"/>
                </g>
                <g transform="matrix(0,-1,-1,0,41.7233,18.6764)">
                    <path d="M-1.231,-1.231C-0.551,-1.231 0,-0.68 0,0C0,0.68 -0.551,1.231 -1.231,1.231C-1.911,1.231 -2.462,0.68 -2.462,0C-2.462,-0.68 -1.911,-1.231 -1.231,-1.231" style="fill:rgb(196,196,196);fill-rule:nonzero;"/>
                </g>
                <g transform="matrix(0,-1,-1,0,61.9692,18.6764)">
                    <path d="M-1.231,-1.231C-0.551,-1.231 0,-0.68 0,0C0,0.68 -0.551,1.231 -1.231,1.231C-1.911,1.231 -2.462,0.68 -2.462,0C-2.462,-0.68 -1.911,-1.231 -1.231,-1.231" style="fill:rgb(196,196,196);fill-rule:nonzero;"/>
                </g>
                <g transform="matrix(0,-1,-1,0,82.2146,18.6759)">
                    <path d="M-1.232,-1.232C-0.552,-1.232 -0.001,-0.681 -0.001,-0.001C-0.001,0.679 -0.552,1.232 -1.232,1.232C-1.912,1.232 -2.463,0.679 -2.463,-0.001C-2.463,-0.681 -1.912,-1.232 -1.232,-1.232" style="fill:rgb(196,196,196);fill-rule:nonzero;"/>
                </g>
                <g transform="matrix(0,-1,-1,0,1.2315,37.3525)">
                    <path d="M-1.231,-1.231C-0.551,-1.231 0,-0.68 0,0C0,0.68 -0.551,1.231 -1.231,1.231C-1.911,1.231 -2.462,0.68 -2.462,0C-2.462,-0.68 -1.911,-1.231 -1.231,-1.231" style="fill:rgb(196,196,196);fill-rule:nonzero;"/>
                </g>
                <g transform="matrix(0,-1,-1,0,21.4769,37.352)">
                    <path d="M-1.232,-1.232C-0.552,-1.232 -0.001,-0.681 -0.001,-0.001C-0.001,0.679 -0.552,1.232 -1.232,1.232C-1.912,1.232 -2.463,0.679 -2.463,-0.001C-2.463,-0.681 -1.912,-1.232 -1.232,-1.232" style="fill:rgb(196,196,196);fill-rule:nonzero;"/>
                </g>
                <g transform="matrix(0,-1,-1,0,41.7233,37.3525)">
                    <path d="M-1.231,-1.231C-0.551,-1.231 0,-0.68 0,0C0,0.68 -0.551,1.231 -1.231,1.231C-1.911,1.231 -2.462,0.68 -2.462,0C-2.462,-0.68 -1.911,-1.231 -1.231,-1.231" style="fill:rgb(196,196,196);fill-rule:nonzero;"/>
                </g>
                <g transform="matrix(0,-1,-1,0,61.9692,37.3525)">
                    <path d="M-1.231,-1.231C-0.551,-1.231 0,-0.68 0,0C0,0.68 -0.551,1.231 -1.231,1.231C-1.911,1.231 -2.462,0.68 -2.462,0C-2.462,-0.68 -1.911,-1.231 -1.231,-1.231" style="fill:rgb(196,196,196);fill-rule:nonzero;"/>
                </g>
                <g transform="matrix(0,-1,-1,0,82.2146,37.352)">
                    <path d="M-1.232,-1.232C-0.552,-1.232 -0.001,-0.681 -0.001,-0.001C-0.001,0.679 -0.552,1.232 -1.232,1.232C-1.912,1.232 -2.463,0.679 -2.463,-0.001C-2.463,-0.681 -1.912,-1.232 -1.232,-1.232" style="fill:rgb(196,196,196);fill-rule:nonzero;"/>
                </g>
                <g transform="matrix(0,-1,-1,0,1.2315,56.0287)">
                    <path d="M-1.231,-1.231C-0.551,-1.231 0,-0.68 0,0C0,0.68 -0.551,1.231 -1.231,1.231C-1.911,1.231 -2.462,0.68 -2.462,0C-2.462,-0.68 -1.911,-1.231 -1.231,-1.231" style="fill:rgb(196,196,196);fill-rule:nonzero;"/>
                </g>
                <g transform="matrix(0,-1,-1,0,21.4769,56.0282)">
                    <path d="M-1.232,-1.232C-0.552,-1.232 -0.001,-0.681 -0.001,-0.001C-0.001,0.679 -0.552,1.232 -1.232,1.232C-1.912,1.232 -2.463,0.679 -2.463,-0.001C-2.463,-0.681 -1.912,-1.232 -1.232,-1.232" style="fill:rgb(196,196,196);fill-rule:nonzero;"/>
                </g>
                <g transform="matrix(0,-1,-1,0,41.7233,56.0287)">
                    <path d="M-1.231,-1.231C-0.551,-1.231 0,-0.68 0,0C0,0.68 -0.551,1.231 -1.231,1.231C-1.911,1.231 -2.462,0.68 -2.462,0C-2.462,-0.68 -1.911,-1.231 -1.231,-1.231" style="fill:rgb(196,196,196);fill-rule:nonzero;"/>
                </g>
                <g transform="matrix(0,-1,-1,0,61.9692,56.0287)">
                    <path d="M-1.231,-1.231C-0.551,-1.231 0,-0.68 0,0C0,0.68 -0.551,1.231 -1.231,1.231C-1.911,1.231 -2.462,0.68 -2.462,0C-2.462,-0.68 -1.911,-1.231 -1.231,-1.231" style="fill:rgb(196,196,196);fill-rule:nonzero;"/>
                </g>
                <g transform="matrix(0,-1,-1,0,82.2146,56.0282)">
                    <path d="M-1.232,-1.232C-0.552,-1.232 -0.001,-0.681 -0.001,-0.001C-0.001,0.679 -0.552,1.232 -1.232,1.232C-1.912,1.232 -2.463,0.679 -2.463,-0.001C-2.463,-0.681 -1.912,-1.232 -1.232,-1.232" style="fill:rgb(196,196,196);fill-rule:nonzero;"/>
                </g>
                <g transform="matrix(0,-1,-1,0,1.2315,74.7048)">
                    <path d="M-1.231,-1.231C-0.551,-1.231 0,-0.68 0,0C0,0.68 -0.551,1.231 -1.231,1.231C-1.911,1.231 -2.462,0.68 -2.462,0C-2.462,-0.68 -1.911,-1.231 -1.231,-1.231" style="fill:rgb(196,196,196);fill-rule:nonzero;"/>
                </g>
                <g transform="matrix(0,-1,-1,0,21.4769,74.7043)">
                    <path d="M-1.232,-1.232C-0.552,-1.232 -0.001,-0.681 -0.001,-0.001C-0.001,0.679 -0.552,1.232 -1.232,1.232C-1.912,1.232 -2.463,0.679 -2.463,-0.001C-2.463,-0.681 -1.912,-1.232 -1.232,-1.232" style="fill:rgb(196,196,196);fill-rule:nonzero;"/>
                </g>
                <g transform="matrix(0,-1,-1,0,41.7233,74.7048)">
                    <path d="M-1.231,-1.231C-0.551,-1.231 0,-0.68 0,0C0,0.68 -0.551,1.231 -1.231,1.231C-1.911,1.231 -2.462,0.68 -2.462,0C-2.462,-0.68 -1.911,-1.231 -1.231,-1.231" style="fill:rgb(196,196,196);fill-rule:nonzero;"/>
                </g>
                <g transform="matrix(0,-1,-1,0,61.9692,74.7048)">
                    <path d="M-1.231,-1.231C-0.551,-1.231 0,-0.68 0,0C0,0.68 -0.551,1.231 -1.231,1.231C-1.911,1.231 -2.462,0.68 -2.462,0C-2.462,-0.68 -1.911,-1.231 -1.231,-1.231" style="fill:rgb(196,196,196);fill-rule:nonzero;"/>
                </g>
                <g transform="matrix(0,-1,-1,0,82.2146,74.7043)">
                    <path d="M-1.232,-1.232C-0.552,-1.232 -0.001,-0.681 -0.001,-0.001C-0.001,0.679 -0.552,1.232 -1.232,1.232C-1.912,1.232 -2.463,0.679 -2.463,-0.001C-2.463,-0.681 -1.912,-1.232 -1.232,-1.232" style="fill:rgb(196,196,196);fill-rule:nonzero;"/>
                </g>
            </g>
        </g>
    </g>
</svg>
