<?xml version="1.0" encoding="UTF-8" standalone="no"?>
<!DOCTYPE svg PUBLIC "-//W3C//DTD SVG 1.1//EN" "http://www.w3.org/Graphics/SVG/1.1/DTD/svg11.dtd">
<svg width="100%" height="100%" viewBox="0 0 486 486" version="1.1" xmlns="http://www.w3.org/2000/svg" xmlns:xlink="http://www.w3.org/1999/xlink" xml:space="preserve" xmlns:serif="http://www.serif.com/" style="fill-rule:evenodd;clip-rule:evenodd;stroke-linecap:round;stroke-linejoin:round;">
    <g transform="matrix(1,0,0,1,239.708,-3196.71)">
        <g transform="matrix(1,0,0,2.48072,0,-225.21)">
            <g transform="matrix(-1.83157,0.42627,-1.05746,-0.738321,150.761,1460.03)">
                <g id="BACKGROUND">
                    <g transform="matrix(0,-1.55063,-1.55063,0,70.5997,-96.0547)">
                        <ellipse cx="-73.187" cy="0" rx="73.187" ry="73.187" style="fill:none;stroke:rgb(165,188,57);stroke-width:1.65px;stroke-dasharray:0,5.76;"/>
                    </g>
                    <g transform="matrix(0,-1.55063,-1.55063,0,70.5997,-77.5991)">
                        <ellipse cx="-61.285" cy="0" rx="61.285" ry="61.285" style="fill:none;stroke:rgb(165,188,57);stroke-width:1.65px;stroke-dasharray:0,5.79;"/>
                    </g>
                    <g transform="matrix(0,-1.55063,-1.55063,0,70.5997,-59.1435)">
                        <ellipse cx="-49.383" cy="0" rx="49.383" ry="49.383" style="fill:none;stroke:rgb(165,188,57);stroke-width:1.65px;stroke-dasharray:0,5.83;"/>
                    </g>
                    <g transform="matrix(0,-1.55063,-1.55063,0,70.5995,-40.6879)">
                        <ellipse cx="-37.481" cy="0" rx="37.481" ry="37.481" style="fill:none;stroke:rgb(165,188,57);stroke-width:1.65px;stroke-dasharray:0,5.73;"/>
                    </g>
                    <g transform="matrix(0,-1.55063,-1.55063,0,70.5995,-22.2323)">
                        <ellipse cx="-25.578" cy="0" rx="25.579" ry="25.578" style="fill:none;stroke:rgb(165,188,57);stroke-width:1.65px;stroke-dasharray:0,5.78;"/>
                    </g>
                </g>
            </g>
        </g>
    </g>
</svg>
