<?xml version="1.0" encoding="UTF-8" standalone="no"?>
<!DOCTYPE svg PUBLIC "-//W3C//DTD SVG 1.1//EN" "http://www.w3.org/Graphics/SVG/1.1/DTD/svg11.dtd">
<svg width="100%" height="100%" viewBox="0 0 108 108" version="1.1" xmlns="http://www.w3.org/2000/svg" xmlns:xlink="http://www.w3.org/1999/xlink" xml:space="preserve" xmlns:serif="http://www.serif.com/" style="fill-rule:evenodd;clip-rule:evenodd;stroke-linejoin:round;stroke-miterlimit:2;">
    <g transform="matrix(1,0,0,1,-478.72,-3110.9)">
        <g transform="matrix(1,0,0,2.48072,0,-225.21)">
            <g transform="matrix(0.679997,0,0,0.274113,-76.4149,1153.13)">
                <g transform="matrix(1.33333,0,0,1.33333,975.118,778.659)">
                    <path d="M0,0C-1.336,79.376 -117.73,79.364 -119.055,-0.003C-117.719,-79.376 -1.325,-79.364 0,0" style="fill:rgb(26,101,51);fill-rule:nonzero;"/>
                </g>
                <g transform="matrix(1.33333,0,0,1.33333,967.677,778.659)">
                    <path d="M0,0C-1.211,71.935 -106.693,71.924 -107.894,-0.002C-106.683,-71.935 -1.201,-71.923 0,0" style="fill:white;fill-rule:nonzero;"/>
                </g>
                <g transform="matrix(1.33333,0,0,1.33333,852.653,801.393)">
                    <path d="M0,0.013C1.426,-0.596 2.557,-0.987 3.586,-1.561C4.036,-1.811 4.521,-2.409 4.577,-2.896C5.175,-8.137 7.005,-12.878 10.286,-17.004C11.315,-18.298 12.314,-19.434 11.011,-21.057C11.209,-21.148 11.307,-21.228 11.345,-21.206C12.756,-20.363 13.806,-20.784 15.049,-21.807C19.114,-25.151 23.824,-27.118 29.084,-27.637C30.089,-27.736 30.64,-28.143 30.97,-29.069C31.321,-30.055 31.785,-31 32.353,-32.32C32.941,-30.918 33.403,-29.884 33.808,-28.829C34.092,-28.088 34.57,-27.751 35.368,-27.673C41.119,-27.114 46.126,-24.829 50.554,-21.153C50.951,-20.823 51.714,-20.864 52.307,-20.867C52.68,-20.869 53.054,-21.121 53.431,-21.263C53.482,-21.121 53.555,-21.018 53.53,-20.977C52.495,-19.354 53.39,-18.255 54.396,-16.997C57.693,-12.877 59.48,-8.096 60.094,-2.88C60.188,-2.085 60.521,-1.725 61.197,-1.462C62.262,-1.049 63.305,-0.579 64.642,-0.012C63.267,0.588 62.125,1.007 61.071,1.585C60.657,1.813 60.223,2.367 60.162,2.821C59.398,8.507 57.354,13.623 53.62,18.025C52.94,18.827 52.957,18.841 53.518,21.05C53.459,21.094 53.369,21.192 53.342,21.177C51.67,20.226 50.549,21.121 49.254,22.144C45.191,25.353 40.506,27.162 35.36,27.726C34.5,27.821 34.04,28.167 33.757,28.968C33.395,29.991 32.922,30.975 32.345,32.333C31.723,30.893 31.323,29.783 30.763,28.761C30.532,28.339 29.985,27.878 29.535,27.823C23.649,27.096 18.445,24.867 13.926,21.012C13.636,20.765 13.049,20.773 12.615,20.814C12.147,20.858 11.697,21.081 11.238,21.226C11.179,21.061 11.11,20.963 11.135,20.924C11.992,19.546 11.517,18.522 10.541,17.335C7.081,13.128 5.162,8.246 4.569,2.825C4.519,2.373 4.047,1.818 3.622,1.589C2.583,1.028 1.456,0.631 0,0.013M32.383,-24.814C18.456,-24.749 7.425,-13.671 7.496,0.178C7.566,13.805 18.766,24.932 32.352,24.871C46.066,24.81 57.262,13.623 57.219,0.024C57.176,-13.698 45.997,-24.878 32.383,-24.814" style="fill:rgb(31,99,50);fill-rule:nonzero;"/>
                </g>
                <g transform="matrix(1.33333,0,0,1.33333,913.18,807.741)">
                    <path d="M0,9.376C-0.388,8.292 -0.728,7.34 -1.068,6.388C-1.019,6.319 -0.971,6.251 -0.922,6.182C-0.206,6.767 0.511,7.352 1.337,8.026C1.576,6.907 1.616,5.652 3.095,5.092C3.216,6.241 3.327,7.302 3.453,8.507C3.683,8.563 4.065,8.655 4.488,8.758C4.252,9.015 4.021,9.264 3.604,9.715C4.311,9.637 4.735,9.59 5.478,9.508C1.78,14.276 -2.834,17.109 -8.39,18.21C-14.87,19.494 -20.942,18.286 -26.436,14.458C-25.355,12.808 -24.74,12.542 -23.139,12.878C-22.791,12.951 -22.412,12.905 -22.05,12.878C-20.799,12.785 -19.547,12.696 -18.3,12.56C-17.976,12.525 -17.624,12.384 -17.37,12.184C-17.088,11.962 -16.823,11.65 -16.688,11.32C-15.705,8.9 -14.646,6.5 -13.84,4.019C-13.422,2.734 -13.47,1.296 -13.33,0.12C-14.431,-0.459 -15.347,-0.94 -16.214,-1.395C-16.086,-2.149 -16.073,-2.86 -15.829,-3.479C-15.586,-4.095 -15.1,-4.613 -14.74,-5.187C-14.518,-5.541 -14.21,-5.902 -14.154,-6.29C-13.953,-7.69 -12.352,-8.511 -11.062,-7.818C-10.165,-7.336 -9.741,-7.577 -9.604,-8.585C-9.541,-9.049 -9.484,-9.773 -9.209,-9.895C-8.705,-10.118 -8.042,-9.981 -7.446,-9.995C-7.519,-9.119 -7.543,-8.234 -7.701,-7.374C-7.739,-7.167 -8.221,-7.042 -8.37,-6.955C-8.318,-5.815 -8.221,-4.804 -8.239,-3.795C-8.255,-2.941 -8.002,-2.569 -7.088,-2.726C-6.775,-2.78 -6.416,-2.577 -6.079,-2.492C-6.193,-2.171 -6.307,-1.851 -6.423,-1.531C-7.077,0.27 -8.273,1.986 -6.784,3.999C-6.352,4.582 -6.349,5.536 -6.292,6.329C-6.23,7.187 -6.338,8.055 -6.365,8.919C-6.441,11.31 -6.307,11.652 -4.055,12.227C-3.42,12.388 -2.576,11.726 -1.828,11.441L-1.828,11.014C-2.635,10.371 -3.442,9.728 -4.248,9.085C-4.235,9.001 -4.223,8.918 -4.211,8.834C-2.887,9.005 -1.564,9.175 0,9.376M-10.227,3.856C-11.463,5.12 -12.755,6.223 -13.763,7.542C-14.52,8.531 -15.025,9.76 -15.431,10.953C-15.806,12.054 -15.185,12.52 -14.089,12.263C-13.574,12.143 -12.973,12.226 -12.446,12.359C-11.733,12.539 -11.288,12.508 -11.059,11.671C-10.614,10.046 -10.172,8.408 -9.552,6.846C-9.06,5.61 -9.382,4.716 -10.227,3.856M-7.661,7.637C-7.723,7.637 -7.785,7.636 -7.847,7.636C-7.831,7.472 -7.762,7.291 -7.81,7.149C-7.95,6.728 -8.136,6.322 -8.304,5.911C-8.569,6.208 -8.96,6.462 -9.078,6.808C-9.646,8.479 -10.152,10.171 -10.649,11.864C-10.72,12.108 -10.646,12.632 -10.603,12.637C-9.838,12.708 -9.052,12.812 -8.305,12.695C-8.044,12.654 -7.709,12.047 -7.69,11.683C-7.616,10.338 -7.661,8.986 -7.661,7.637M-7.976,1.475C-7.667,0.544 -7.34,-0.311 -7.122,-1.193C-7.072,-1.393 -7.352,-1.839 -7.559,-1.9C-7.856,-1.986 -8.36,-1.943 -8.541,-1.744C-9.319,-0.885 -9.097,0.459 -7.976,1.475" style="fill:rgb(31,99,50);fill-rule:nonzero;"/>
                </g>
                <g transform="matrix(1.33333,0,0,1.33333,866.358,809.145)">
                    <path d="M0,-4.731C0.165,-5.378 0.342,-6.022 0.492,-6.672C0.597,-7.126 0.666,-7.588 0.719,-8.049C0.935,-9.198 1.151,-10.347 1.367,-11.497L1.785,-11.51C2.062,-11.036 2.47,-10.59 2.583,-10.079C2.722,-9.445 2.616,-8.757 2.616,-8.295C2.932,-6.988 3.206,-5.855 3.481,-4.721C3.428,-4.137 3.759,-2.635 4.343,-2.42C5.208,-2.103 5.929,-2.37 6.455,-3.311C5.945,-3.502 5.491,-3.672 4.851,-3.911C5.541,-4.425 6.063,-4.814 6.879,-5.422L5.231,-5.422C5.621,-6.346 5.95,-7.126 6.333,-8.032C6.228,-8.113 5.968,-8.311 5.587,-8.601C6.114,-8.957 6.537,-9.243 6.748,-9.385C6.687,-9.931 6.627,-10.308 6.608,-10.687C6.588,-11.076 6.476,-11.544 6.644,-11.84C6.865,-12.23 7.32,-12.487 7.706,-12.828C7.447,-13.191 7.147,-13.612 6.819,-14.073C7.175,-14.324 7.437,-14.508 7.791,-14.757C7.54,-14.988 7.324,-15.187 7.114,-15.381C7.519,-16.057 7.927,-16.738 8.407,-17.54C8.867,-16.794 9.296,-16.101 9.746,-15.37C9.547,-15.215 9.334,-15.05 9.039,-14.821C9.382,-14.558 9.658,-14.346 10.04,-14.053C9.74,-13.641 9.456,-13.251 9.168,-12.856C10.362,-11.796 10.728,-10.374 9.936,-9.525C10.359,-9.227 10.778,-8.931 11.342,-8.535C10.936,-8.314 10.682,-8.177 10.466,-8.061C10.839,-7.245 11.213,-6.425 11.651,-5.467L9.957,-5.467C10.784,-4.849 11.317,-4.451 12.038,-3.913C11.448,-3.707 11.015,-3.556 10.506,-3.379C10.694,-2.163 11.838,-2.45 12.612,-1.807C11.91,-1.654 11.209,-1.502 10.34,-1.312C10.655,-1.089 10.921,-0.844 11.233,-0.695C11.601,-0.518 12.054,-0.492 12.385,-0.273C12.651,-0.097 12.79,0.27 12.985,0.553C12.701,0.71 12.43,0.897 12.13,1.014C11.965,1.079 11.754,1.026 11.474,1.317C12.226,1.642 12.977,1.967 13.774,2.311C12.978,3.751 11.976,2.525 10.983,2.807C11.552,3.136 12.148,3.428 12.68,3.809C12.965,4.013 13.139,4.37 13.363,4.658C12.975,4.742 12.59,4.849 12.198,4.897C12.053,4.915 11.888,4.744 11.737,4.752C11.555,4.761 11.378,4.869 11.199,4.935C11.28,5.136 11.306,5.398 11.451,5.528C12.01,6.031 12.608,6.491 13.093,7.223C12.419,7.071 11.745,6.918 10.934,6.734C11.049,7.351 11.063,8.014 11.323,8.559C11.45,8.825 12.032,8.977 12.418,8.997C13.436,9.047 14.331,7.749 14.713,6.172C14.767,6.931 14.821,7.692 14.883,8.567C15.311,7.979 15.722,7.412 16.134,6.845C16.311,6.941 16.487,7.038 16.664,7.134C15.042,8.372 15.149,9.569 16.781,10.822C14.671,10.303 12.94,11.848 11.004,11.001C10.599,10.824 9.665,11.468 9.181,11.944C8.3,12.809 7.649,12.789 6.734,11.962C3.936,9.434 1.765,6.479 0.34,2.992C0.12,2.456 0.19,1.809 0.048,1.232C-0.029,0.917 -0.269,0.643 -0.457,0.314C-0.258,0.042 -0.049,-0.244 0.204,-0.591C-0.135,-0.785 -0.405,-0.939 -0.934,-1.241C-0.46,-1.481 -0.094,-1.665 -0.042,-1.691C-0.212,-2.47 -0.393,-2.918 -0.381,-3.361C-0.371,-3.745 -0.143,-4.123 -0.011,-4.505C-0.007,-4.58 -0.004,-4.655 0,-4.731M4.451,-1.126C4.047,-0.934 3.721,-0.78 3.261,-0.562C4.723,-0.137 6.106,-0.63 6.292,-1.296C5.31,-1.587 4.351,-1.872 3.086,-2.249C3.659,-1.778 4.006,-1.492 4.451,-1.126" style="fill:rgb(31,99,50);fill-rule:nonzero;"/>
                </g>
                <g transform="matrix(1.33333,0,0,1.33333,921.863,777.559)">
                    <path d="M0,9.029C-0.438,8.913 -0.876,8.797 -1.314,8.681C-1.353,8.744 -1.392,8.806 -1.431,8.869C-1.083,9.234 -0.734,9.598 -0.385,9.963C-0.409,10.015 -0.433,10.068 -0.456,10.121C-1.107,9.843 -1.736,9.409 -2.412,9.319C-4.181,9.083 -5.425,8.169 -6.346,6.708C-6.409,6.608 -6.566,6.454 -6.613,6.474C-7.981,7.092 -8.686,5.702 -10.004,5.606C-9.146,6.732 -8.287,7.858 -7.37,9.061C-8.741,8.977 -9.329,7.01 -11.027,7.758C-11.78,6.996 -12.21,5.556 -14.021,5.644C-13.989,7.914 -15.193,9.238 -17.602,9.531C-17.283,9.165 -17.053,8.82 -16.748,8.565C-15.728,7.713 -15.068,6.77 -15.703,5.379C-15.767,5.239 -15.806,4.98 -15.728,4.901C-14.285,3.424 -15.796,2.06 -15.798,0.369C-19.531,2.908 -23.085,5.325 -26.639,7.741C-26.683,7.705 -26.727,7.669 -26.771,7.633C-26.474,7.242 -26.177,6.85 -25.88,6.458L-25.973,6.301C-26.731,6.718 -27.49,7.134 -28.532,7.705C-28.168,6.84 -27.915,6.24 -27.589,5.466C-28.152,5.397 -28.577,5.345 -29.107,5.28C-28.991,4.949 -28.883,4.64 -28.698,4.113C-29.387,4.286 -29.94,4.424 -30.512,4.567C-30.549,3.796 -30.584,3.09 -30.616,2.425C-32.844,3.45 -34.945,4.417 -37.046,5.384L-37.134,5.277C-34.942,3.741 -32.767,2.179 -30.534,0.704C-30.256,0.52 -29.578,0.66 -29.245,0.885C-27.677,1.947 -26.147,3.066 -24.642,4.215C-23.983,4.717 -23.459,4.74 -22.772,4.244C-20.503,2.604 -18.183,1.036 -15.908,-0.595C-15.33,-1.009 -14.864,-1.092 -14.242,-0.678C-9.584,2.429 -4.911,5.512 -0.239,8.596C-0.108,8.682 0.061,8.709 0.212,8.763C0.141,8.852 0.071,8.941 0,9.029" style="fill:rgb(31,99,50);fill-rule:nonzero;"/>
                </g>
                <g transform="matrix(1.33333,0,0,1.33333,918.339,724.793)">
                    <path d="M0,12.272L0,-0.034L1.032,-0.034L5.63,5.639L10.209,-0.034L11.253,-0.034L11.253,12.272L10.244,12.272L10.244,1.407L5.63,7.133L0.993,1.407L0.993,12.272L0,12.272ZM-11.956,7.17C-11.956,8.489 -11.585,9.536 -10.846,10.314C-10.107,11.092 -9.118,11.479 -7.878,11.479C-6.64,11.479 -5.653,11.092 -4.912,10.314C-4.171,9.536 -3.804,8.489 -3.804,7.17L-3.804,-0.034L-2.775,-0.034L-2.775,7.116C-2.775,8.771 -3.234,10.081 -4.158,11.051C-5.08,12.021 -6.322,12.506 -7.881,12.506C-9.44,12.506 -10.674,12.024 -11.591,11.057C-12.509,10.09 -12.964,8.779 -12.964,7.116L-12.964,-0.034L-11.956,-0.034L-11.956,7.17ZM-22.956,-0.034L-19.961,-0.034C-18.653,-0.034 -17.649,0.23 -16.951,0.761C-16.254,1.293 -15.906,2.052 -15.906,3.044C-15.906,3.801 -16.1,4.428 -16.49,4.928C-16.879,5.424 -17.468,5.8 -18.252,6.053C-18.031,6.18 -17.829,6.33 -17.646,6.501C-17.465,6.673 -17.299,6.868 -17.156,7.082L-13.765,12.272L-14.883,12.272L-16.848,9.248C-17.234,8.655 -17.568,8.168 -17.849,7.781C-18.13,7.399 -18.352,7.124 -18.516,6.961C-18.734,6.744 -19.022,6.591 -19.38,6.499C-19.736,6.409 -20.261,6.362 -20.955,6.362L-21.965,6.362L-21.965,12.272L-22.956,12.272L-22.956,-0.034ZM-21.965,0.792L-21.965,5.515L-21.207,5.515C-20.271,5.515 -19.621,5.491 -19.256,5.447C-18.894,5.398 -18.586,5.319 -18.344,5.209C-17.888,5.007 -17.553,4.728 -17.328,4.37C-17.101,4.014 -16.986,3.572 -16.986,3.044C-16.986,2.329 -17.24,1.776 -17.749,1.382C-18.255,0.989 -18.975,0.792 -19.905,0.792L-21.965,0.792ZM-38.05,6.065C-38.05,5.24 -37.885,4.442 -37.558,3.668C-37.228,2.897 -36.76,2.214 -36.157,1.622C-35.536,1.02 -34.833,0.56 -34.045,0.242C-33.261,-0.074 -32.438,-0.234 -31.575,-0.234C-30.699,-0.234 -29.871,-0.074 -29.085,0.242C-28.302,0.56 -27.605,1.02 -26.995,1.622C-26.372,2.232 -25.899,2.917 -25.581,3.675C-25.259,4.438 -25.1,5.249 -25.1,6.11C-25.1,6.756 -25.194,7.382 -25.378,7.983C-25.565,8.586 -25.837,9.154 -26.201,9.673C-26.814,10.571 -27.585,11.266 -28.524,11.754C-29.459,12.242 -30.478,12.491 -31.575,12.491C-32.444,12.491 -33.277,12.328 -34.075,12.007C-34.87,11.683 -35.564,11.226 -36.157,10.635C-36.771,10.016 -37.241,9.318 -37.566,8.541C-37.889,7.759 -38.05,6.937 -38.05,6.065M-36.967,6.112C-36.967,6.838 -36.833,7.536 -36.559,8.212C-36.287,8.892 -35.902,9.489 -35.403,10.006C-34.904,10.51 -34.318,10.902 -33.65,11.183C-32.979,11.466 -32.291,11.607 -31.578,11.607C-30.846,11.607 -30.153,11.471 -29.502,11.2C-28.848,10.924 -28.27,10.528 -27.758,10.006C-27.247,9.489 -26.859,8.895 -26.588,8.227C-26.318,7.557 -26.183,6.855 -26.183,6.112C-26.183,5.374 -26.316,4.676 -26.583,4.018C-26.851,3.36 -27.241,2.772 -27.758,2.252C-28.27,1.734 -28.855,1.334 -29.517,1.054C-30.174,0.772 -30.863,0.631 -31.578,0.631C-32.291,0.631 -32.973,0.769 -33.631,1.048C-34.288,1.329 -34.879,1.73 -35.403,2.252C-35.906,2.757 -36.292,3.34 -36.562,4.009C-36.833,4.671 -36.967,5.374 -36.967,6.112M-45.388,12.272L-45.388,-0.034L-39.13,-0.034L-39.13,0.792L-44.359,0.792L-44.359,5.333L-39.63,5.333L-39.63,6.147L-44.359,6.147L-44.359,12.272L-45.388,12.272Z" style="fill:rgb(82,67,61);fill-rule:nonzero;"/>
                </g>
                <g transform="matrix(1.33333,0,0,1.33333,0,0)">
                    <g transform="matrix(13.682,0,0,13.682,643.15,566.752)">
                        <path d="M0.234,-0L0.234,-0.595L0.021,-0.595L0.021,-0.716L0.59,-0.716L0.59,-0.595L0.378,-0.595L0.378,-0L0.234,-0Z" style="fill:rgb(31,99,50);fill-rule:nonzero;"/>
                    </g>
                    <g transform="matrix(13.682,0,0,13.682,650.755,566.752)">
                        <path d="M0.072,-0.716L0.216,-0.716L0.216,-0.328C0.216,-0.267 0.218,-0.227 0.222,-0.208C0.228,-0.179 0.243,-0.156 0.266,-0.138C0.289,-0.12 0.321,-0.111 0.361,-0.111C0.402,-0.111 0.433,-0.12 0.454,-0.136C0.475,-0.153 0.487,-0.174 0.492,-0.198C0.496,-0.223 0.498,-0.263 0.498,-0.32L0.498,-0.716L0.643,-0.716L0.643,-0.34C0.643,-0.254 0.639,-0.193 0.631,-0.158C0.623,-0.122 0.609,-0.092 0.588,-0.068C0.567,-0.043 0.539,-0.024 0.503,-0.01C0.468,0.005 0.422,0.012 0.366,0.012C0.297,0.012 0.246,0.004 0.21,-0.011C0.175,-0.027 0.147,-0.048 0.126,-0.073C0.106,-0.098 0.092,-0.125 0.086,-0.152C0.076,-0.193 0.072,-0.254 0.072,-0.334L0.072,-0.716Z" style="fill:rgb(31,99,50);fill-rule:nonzero;"/>
                    </g>
                    <g transform="matrix(13.682,0,0,13.682,659.884,566.752)">
                        <path d="M0.073,-0L0.073,-0.716L0.377,-0.716C0.454,-0.716 0.51,-0.709 0.544,-0.697C0.579,-0.684 0.607,-0.661 0.627,-0.628C0.648,-0.595 0.659,-0.557 0.659,-0.515C0.659,-0.461 0.643,-0.417 0.611,-0.382C0.58,-0.347 0.533,-0.325 0.47,-0.316C0.501,-0.298 0.527,-0.278 0.547,-0.256C0.567,-0.234 0.595,-0.195 0.629,-0.14L0.717,-0L0.544,-0L0.439,-0.156C0.402,-0.211 0.377,-0.247 0.363,-0.261C0.35,-0.275 0.335,-0.285 0.32,-0.291C0.305,-0.296 0.28,-0.299 0.247,-0.299L0.218,-0.299L0.218,-0L0.073,-0ZM0.218,-0.413L0.325,-0.413C0.394,-0.413 0.437,-0.416 0.455,-0.422C0.472,-0.428 0.485,-0.438 0.495,-0.452C0.505,-0.466 0.51,-0.484 0.51,-0.506C0.51,-0.53 0.503,-0.549 0.49,-0.564C0.478,-0.579 0.459,-0.588 0.436,-0.592C0.424,-0.594 0.389,-0.595 0.331,-0.595L0.218,-0.595L0.218,-0.413Z" style="fill:rgb(31,99,50);fill-rule:nonzero;"/>
                    </g>
                    <g transform="matrix(13.682,0,0,13.682,669.012,566.752)">
                        <rect x="0.068" y="-0.716" width="0.145" height="0.716" style="fill:rgb(31,99,50);fill-rule:nonzero;"/>
                    </g>
                    <g transform="matrix(13.682,0,0,13.682,672.061,566.752)">
                        <path d="M0.036,-0.233L0.177,-0.247C0.185,-0.199 0.202,-0.165 0.228,-0.143C0.254,-0.12 0.289,-0.109 0.333,-0.109C0.38,-0.109 0.415,-0.119 0.438,-0.139C0.462,-0.159 0.474,-0.182 0.474,-0.208C0.474,-0.225 0.469,-0.239 0.459,-0.251C0.449,-0.263 0.431,-0.273 0.407,-0.282C0.39,-0.288 0.351,-0.299 0.291,-0.313C0.214,-0.333 0.159,-0.356 0.128,-0.384C0.084,-0.424 0.062,-0.472 0.062,-0.528C0.062,-0.565 0.072,-0.599 0.093,-0.631C0.114,-0.662 0.143,-0.687 0.182,-0.703C0.221,-0.72 0.268,-0.728 0.323,-0.728C0.413,-0.728 0.481,-0.708 0.526,-0.669C0.572,-0.63 0.595,-0.577 0.598,-0.511L0.453,-0.505C0.447,-0.542 0.434,-0.568 0.413,-0.584C0.393,-0.6 0.362,-0.608 0.322,-0.608C0.28,-0.608 0.247,-0.6 0.223,-0.583C0.208,-0.571 0.2,-0.557 0.2,-0.538C0.2,-0.521 0.207,-0.507 0.222,-0.495C0.24,-0.479 0.284,-0.463 0.354,-0.447C0.425,-0.43 0.477,-0.413 0.51,-0.395C0.544,-0.378 0.571,-0.353 0.59,-0.323C0.609,-0.292 0.618,-0.254 0.618,-0.208C0.618,-0.167 0.607,-0.129 0.584,-0.093C0.561,-0.057 0.529,-0.031 0.487,-0.013C0.446,0.004 0.394,0.013 0.332,0.013C0.241,0.013 0.172,-0.008 0.123,-0.05C0.075,-0.092 0.046,-0.153 0.036,-0.233Z" style="fill:rgb(31,99,50);fill-rule:nonzero;"/>
                    </g>
                    <g transform="matrix(13.682,0,0,13.682,680.434,566.752)">
                        <path d="M0.071,-0L0.071,-0.716L0.287,-0.716L0.417,-0.228L0.545,-0.716L0.762,-0.716L0.762,-0L0.628,-0L0.628,-0.563L0.486,-0L0.347,-0L0.205,-0.563L0.205,-0L0.071,-0Z" style="fill:rgb(31,99,50);fill-rule:nonzero;"/>
                    </g>
                    <g transform="matrix(13.682,0,0,13.682,691.079,566.752)">
                        <path d="M0.043,-0.354C0.043,-0.426 0.054,-0.488 0.076,-0.537C0.092,-0.574 0.115,-0.606 0.143,-0.635C0.171,-0.664 0.202,-0.686 0.235,-0.7C0.28,-0.719 0.331,-0.728 0.39,-0.728C0.495,-0.728 0.58,-0.695 0.643,-0.63C0.706,-0.564 0.738,-0.473 0.738,-0.357C0.738,-0.241 0.706,-0.151 0.644,-0.086C0.581,-0.02 0.497,0.012 0.392,0.012C0.285,0.012 0.201,-0.02 0.138,-0.085C0.075,-0.15 0.043,-0.24 0.043,-0.354ZM0.192,-0.358C0.192,-0.277 0.211,-0.216 0.249,-0.174C0.286,-0.132 0.333,-0.111 0.391,-0.111C0.449,-0.111 0.496,-0.132 0.533,-0.174C0.57,-0.215 0.588,-0.277 0.588,-0.36C0.588,-0.442 0.57,-0.504 0.534,-0.544C0.498,-0.584 0.451,-0.604 0.391,-0.604C0.332,-0.604 0.284,-0.584 0.247,-0.543C0.211,-0.502 0.192,-0.441 0.192,-0.358Z" style="fill:rgb(31,99,50);fill-rule:nonzero;"/>
                    </g>
                </g>
            </g>
        </g>
    </g>
</svg>
