<?xml version="1.0" encoding="UTF-8" standalone="no"?>
<!DOCTYPE svg PUBLIC "-//W3C//DTD SVG 1.1//EN" "http://www.w3.org/Graphics/SVG/1.1/DTD/svg11.dtd">
<svg width="100%" height="100%" viewBox="0 0 121 50" version="1.1" xmlns="http://www.w3.org/2000/svg" xmlns:xlink="http://www.w3.org/1999/xlink" xml:space="preserve" xmlns:serif="http://www.serif.com/" style="fill-rule:evenodd;clip-rule:evenodd;stroke-linejoin:round;stroke-miterlimit:2;">
    <g transform="matrix(1,0,0,1,-1175.21,-11213.8)">
        <g transform="matrix(1,0,0,2.48072,0,1059.24)">
            <g transform="matrix(1,0,0,1,413.292,5.28318)">
                <g transform="matrix(-1,-4.93666e-17,1.22465e-16,-0.403109,1640.82,8225.16)">
                    <path d="M816.193,10215.7C816.647,10215.2 817.275,10214.9 817.931,10214.9C818.586,10214.9 819.214,10215.2 819.668,10215.7C822.7,10218.8 828.637,10225 828.637,10225L807.224,10225C807.224,10225 813.161,10218.8 816.193,10215.7Z" style="fill:rgb(96,57,19);"/>
                </g>
                <g transform="matrix(1.02951,0,0,0.134487,-22.9495,2728.02)">
                    <path d="M879.852,10122.9C879.852,10117.6 878.447,10113.2 876.716,10113.2L765.502,10113.2C763.771,10113.2 762.366,10117.6 762.366,10122.9L762.366,10221C762.366,10226.4 763.771,10230.7 765.502,10230.7L876.716,10230.7C878.447,10230.7 879.852,10226.4 879.852,10221L879.852,10122.9Z" style="fill:rgb(96,57,19);"/>
                </g>
                <g transform="matrix(0.224684,0,0,0.0905722,674.738,3036.49)">
                    <path d="M764.465,11724.7C763.301,11724.7 762.338,11724.3 761.579,11723.6C760.819,11722.8 760.439,11721.9 760.439,11720.7C760.439,11718.1 761.211,11715.7 762.756,11713.4C764.301,11711.2 766.175,11709.2 768.378,11707.5C770.581,11705.8 773.48,11703.8 777.076,11701.5C780.165,11699.5 782.621,11697.9 784.445,11696.5C786.268,11695.1 787.787,11693.6 789.003,11692C790.218,11690.4 790.826,11688.7 790.826,11686.8C790.826,11684 789.876,11681.7 787.977,11680C786.078,11678.3 783.027,11677.4 778.823,11677.4C774.265,11677.4 769.935,11678.3 765.833,11680.2C765.326,11680.4 764.845,11680.5 764.389,11680.5C763.579,11680.5 762.895,11680.3 762.338,11679.7C761.781,11679.1 761.503,11678.4 761.503,11677.6C761.503,11676.3 762.06,11675.4 763.174,11674.8C768.34,11672.2 773.961,11670.9 780.038,11670.9C783.28,11670.9 786.23,11671.5 788.889,11672.8C791.547,11674.1 793.649,11675.9 795.194,11678.3C796.738,11680.6 797.511,11683.3 797.511,11686.3C797.511,11689.3 796.637,11692.1 794.89,11694.6C793.143,11697.2 791.054,11699.4 788.623,11701.4C786.192,11703.3 783.027,11705.5 779.127,11708C775.582,11710.4 772.91,11712.3 771.112,11713.8C769.315,11715.2 768.061,11716.7 767.352,11718.2L793.788,11718.2C794.7,11718.2 795.472,11718.5 796.105,11719.2C796.738,11719.8 797.055,11720.6 797.055,11721.5C797.055,11722.4 796.738,11723.2 796.105,11723.8C795.472,11724.4 794.7,11724.7 793.788,11724.7L764.465,11724.7Z" style="fill:white;"/>
                    <path d="M810.501,11724.7C809.336,11724.7 808.374,11724.3 807.614,11723.6C806.855,11722.8 806.475,11721.9 806.475,11720.7C806.475,11718.1 807.247,11715.7 808.792,11713.4C810.336,11711.2 812.21,11709.2 814.413,11707.5C816.616,11705.8 819.516,11703.8 823.111,11701.5C826.201,11699.5 828.657,11697.9 830.48,11696.5C832.303,11695.1 833.823,11693.6 835.038,11692C836.254,11690.4 836.861,11688.7 836.861,11686.8C836.861,11684 835.912,11681.7 834.013,11680C832.114,11678.3 829.062,11677.4 824.859,11677.4C820.301,11677.4 815.971,11678.3 811.868,11680.2C811.362,11680.4 810.881,11680.5 810.425,11680.5C809.615,11680.5 808.931,11680.3 808.374,11679.7C807.817,11679.1 807.538,11678.4 807.538,11677.6C807.538,11676.3 808.095,11675.4 809.21,11674.8C814.375,11672.2 819.997,11670.9 826.074,11670.9C829.315,11670.9 832.265,11671.5 834.924,11672.8C837.583,11674.1 839.685,11675.9 841.229,11678.3C842.774,11680.6 843.546,11683.3 843.546,11686.3C843.546,11689.3 842.673,11692.1 840.926,11694.6C839.178,11697.2 837.089,11699.4 834.658,11701.4C832.227,11703.3 829.062,11705.5 825.163,11708C821.617,11710.4 818.946,11712.3 817.148,11713.8C815.35,11715.2 814.097,11716.7 813.388,11718.2L839.824,11718.2C840.736,11718.2 841.508,11718.5 842.141,11719.2C842.774,11719.8 843.091,11720.6 843.091,11721.5C843.091,11722.4 842.774,11723.2 842.141,11723.8C841.508,11724.4 840.736,11724.7 839.824,11724.7L810.501,11724.7Z" style="fill:white;"/>
                    <text x="466.905px" y="11724.7px" style="font-family:'VarelaRound-Regular', 'Varela Round';font-size:75.966px;fill:white;">SSHOW</text>
                </g>
            </g>
        </g>
    </g>
</svg>
